# xmcd CD database file
#
# Track frame offsets:
#	150
#	33262
#	89610
#	132915
#	161630
#	186292
#	213452
#	247087
#
# Disc length: 3500 seconds
#
# Revision: 0
# Processed by: cddbd v1.5.1PL2 Copyright (c) Steve Scherf et al.
# Submitted via: CDex 1.51
#
DISCID=710daa08
DTITLE=Roberto Magris Europlane - Check-in
DYEAR=2005
DGENRE=Jazz
TTITLE0=I Remember You
TTITLE1=Blues For My Sleeping Baby
TTITLE2=African Mood
TTITLE3=Luci lontane
TTITLE4=What Blues?
TTITLE5=Why Did I Choose You
TTITLE6=I Concentrate On You
TTITLE7=Che cosa c'è
EXTD=YEAR: 2005
EXTT0=
EXTT1=
EXTT2=
EXTT3=
EXTT4=
EXTT5=
EXTT6=
EXTT7=
PLAYORDER=
